<svg width="100" height="100" viewBox="0 0 100 100" fill="none" xmlns="http://www.w3.org/2000/svg">
<path d="M82.0412 100H17.9588C8.05691 100 0 91.9431 0 82.0412V17.9588C0 8.05692 8.05691 0 17.9588 0H82.0412C91.9431 0 100 8.05692 100 17.9588V82.0412C100 91.9431 91.9431 100 82.0412 100ZM17.9588 8.35132C12.6595 8.35132 8.35133 12.6595 8.35133 17.9588V82.0412C8.35133 87.3405 12.6595 91.6487 17.9588 91.6487H82.0412C87.3405 91.6487 91.6487 87.3405 91.6487 82.0412V17.9588C91.6487 12.6595 87.3405 8.35132 82.0412 8.35132H17.9588V8.35132Z" fill="url(#paint0_linear_3733_5841)"/>
<path d="M69.3229 81.8254H30.6673C23.7782 81.8254 18.1747 76.2219 18.1747 69.3328V30.6772C18.1747 23.7881 23.7782 18.1846 30.6673 18.1846H69.3229C76.212 18.1846 81.8155 23.7881 81.8155 30.6772V69.3328C81.8155 76.2219 76.212 81.8254 69.3229 81.8254ZM30.6673 26.5359C28.3906 26.5359 26.526 28.3907 26.526 30.6772V69.3328C26.526 71.6095 28.3807 73.4741 30.6673 73.4741H69.3229C71.5996 73.4741 73.4642 71.6193 73.4642 69.3328V30.6772C73.4642 28.3907 71.6094 26.5359 69.3229 26.5359H30.6673Z" fill="#5E7699"/>
<path d="M56.7125 63.7879H43.2777C39.3818 63.7879 36.212 60.6181 36.212 56.7222V43.2874C36.212 39.3915 39.3818 36.2217 43.2777 36.2217H56.7125C60.6085 36.2217 63.7782 39.3915 63.7782 43.2874V56.7222C63.7782 60.6181 60.6085 63.7879 56.7125 63.7879ZM44.5633 55.4366H55.4269V44.5828H44.5633V55.4366Z" fill="url(#paint1_linear_3733_5841)"/>
<defs>
<linearGradient id="paint0_linear_3733_5841" x1="-0.00981354" y1="50" x2="100" y2="50" gradientUnits="userSpaceOnUse">
<stop stop-color="#FF7044"/>
<stop offset="1" stop-color="#FF7044"/>
</linearGradient>
<linearGradient id="paint1_linear_3733_5841" x1="36.212" y1="49.9999" x2="63.7782" y2="49.9999" gradientUnits="userSpaceOnUse">
<stop stop-color="#FF7044"/>
<stop offset="1" stop-color="#FF7044"/>
</linearGradient>
</defs>
</svg>
